<svg width="302" height="247" fill="none" xmlns="http://www.w3.org/2000/svg"><circle cx="131.056" cy="139.474" r="106.805" fill="#F4FAF2"/><path fill-rule="evenodd" clip-rule="evenodd" d="M46.307 150.051c10.937 4.74 21.145 19.322 26.614 34.999-26.25-.729-63.072-7.292-63.8-74.372 15.676 15.312 70.362 5.104 78.018 58.695 7.292-84.579 88.592-74.736 111.561-98.432-3.282 93.693-54.687 106.453-91.509 110.099 8.385-22.604 22.968-44.113 38.281-51.404-25.156 2.552-42.291 32.811-55.051 64.893-1.094 2.187-1.094 3.281-1.459 5.468l-.364-.729c-7.292-20.416-21.146-48.852-42.291-49.217z" fill="#fff"/><circle cx="151.528" cy="119.893" r="80.104" stroke="#3C3E45" stroke-width="3" stroke-linecap="round" stroke-linejoin="round"/><circle cx="151.527" cy="119.893" r="105.025" stroke="#3C3E45" stroke-width="3" stroke-linecap="round" stroke-linejoin="round"/><path d="M277.469 44.181a6.173 6.173 0 1 1 12.229-1.192l6.709 34.099a98.67 98.67 0 0 1-3.406 50.847l-4.23 12.429a.975.975 0 0 0-.054.321v65.258a5.625 5.625 0 0 1-11.248 0V44.181z" stroke="#3C3E45" stroke-width="3" stroke-linecap="round" stroke-linejoin="round"/><rect x="9.095" y="112.886" width="14.19" height="102.367" rx="7.095" stroke="#3C3E45" stroke-width="3" stroke-linecap="round" stroke-linejoin="round"/><path d="M2 48.02v23.31c0 7.837 6.353 14.19 14.19 14.19 7.836 0 14.189-6.353 14.189-14.19V48.02m-14.19 0v63.852" stroke="#3C3E45" stroke-width="3" stroke-linecap="round" stroke-linejoin="round"/><path d="M98.103 49.774c-2.733-4.657-.904-10.654 3.962-12.993 4.866-2.338 10.692-.02 12.621 5.022l18.466 48.266a4.952 4.952 0 0 1-8.895 4.275l-26.154-44.57z" fill="#F79A6E"/><path d="M100.076 45.651c-2.732-4.656-.903-10.654 3.963-12.993 4.866-2.338 10.692-.02 12.621 5.022l18.466 48.266a4.951 4.951 0 1 1-8.895 4.275l-26.155-44.57zm4.176-13.6l-2.962-6.163" stroke="#3C3E45" stroke-width="3" stroke-linecap="round" stroke-linejoin="round"/><path d="M100.997 26.027l.935 1.173c.481-.383.679-1.02.5-1.609l-1.435.436zm-11.174-3.473l-.935-1.172a1.5 1.5 0 0 0-.5 1.608l1.435-.436zm10.239 2.3a5.56 5.56 0 0 1-5.318.904l-.993 2.831a8.56 8.56 0 0 0 8.181-1.39l-1.87-2.345zm-5.318.904a5.555 5.555 0 0 1-3.485-3.64l-2.87.872a8.555 8.555 0 0 0 5.362 5.6l.993-2.832zm-3.985-2.031a5.56 5.56 0 0 1 5.318-.904l.993-2.831a8.56 8.56 0 0 0-8.182 1.39l1.87 2.345zm5.318-.904a5.555 5.555 0 0 1 3.485 3.64l2.87-.872a8.555 8.555 0 0 0-5.362-5.599l-.993 2.83z" fill="#3C3E45"/><path d="M101.624 25.952l-1.226.863c.368.525 1.03.757 1.645.578l-.419-1.44zm3.808-10.856l1.227-.863a1.5 1.5 0 0 0-1.646-.578l.419 1.44zm-2.581 9.993a5.558 5.558 0 0 1-.703-5.05l-2.83-.992a8.555 8.555 0 0 0 1.08 7.768l2.453-1.726zm-.703-5.05a5.557 5.557 0 0 1 3.703-3.503l-.838-2.88a8.556 8.556 0 0 0-5.696 5.39l2.831.994zm2.057-4.08a5.555 5.555 0 0 1 .703 5.05l2.831.992a8.557 8.557 0 0 0-1.08-7.768l-2.454 1.726zm.703 5.05a5.555 5.555 0 0 1-3.703 3.503l.838 2.88a8.555 8.555 0 0 0 5.696-5.39l-2.831-.994z" fill="#3C3E45"/><path d="M133.746 33.528c-.673-5.357 3.374-10.146 8.768-10.375 5.394-.23 9.832 4.2 9.615 9.594l-2.076 51.636a4.952 4.952 0 0 1-9.86.419l-6.447-51.275z" fill="#F79A6E"/><path d="M137.188 30.518c-.674-5.357 3.373-10.146 8.767-10.375 5.394-.229 9.833 4.2 9.616 9.594l-2.077 51.637a4.952 4.952 0 0 1-9.86.419l-6.446-51.275zm9.204-10.85l-.29-6.83" stroke="#3C3E45" stroke-width="3" stroke-linecap="round" stroke-linejoin="round"/><path d="M145.776 12.85l.396 1.446a1.5 1.5 0 0 0 1.095-1.28l-1.491-.167zm-8.897-7.6l-.396-1.447a1.5 1.5 0 0 0-1.095 1.28l1.491.166zm8.5 6.153a5.56 5.56 0 0 1-5.243-1.268l-2.029 2.21a8.56 8.56 0 0 0 8.065 1.95l-.793-2.892zm-5.243-1.268a5.555 5.555 0 0 1-1.766-4.72l-2.982-.332a8.556 8.556 0 0 0 2.719 7.261l2.029-2.209zm-2.86-3.439a5.561 5.561 0 0 1 5.243 1.268l2.029-2.21a8.559 8.559 0 0 0-8.065-1.951l.793 2.893zm5.243 1.268a5.555 5.555 0 0 1 1.766 4.72l2.982.331a8.557 8.557 0 0 0-2.719-7.26l-2.029 2.209z" fill="#3C3E45"/><path d="M146.384 13.029l-1.468.309a1.5 1.5 0 0 0 1.285 1.18l.183-1.49zm7.782-8.474l1.467-.309a1.5 1.5 0 0 0-1.284-1.18l-.183 1.49zm-6.314 8.165a5.556 5.556 0 0 1 1.346-4.918l-2.209-2.029a8.553 8.553 0 0 0-2.073 7.565l2.936-.618zm1.346-4.918a5.556 5.556 0 0 1 4.784-1.758l.367-2.978a8.556 8.556 0 0 0-7.36 2.707l2.209 2.03zm3.5-2.938a5.553 5.553 0 0 1-1.347 4.917l2.21 2.03a8.556 8.556 0 0 0 2.072-7.565l-2.935.618zm-1.347 4.917a5.556 5.556 0 0 1-4.784 1.759l-.366 2.978a8.556 8.556 0 0 0 7.36-2.707l-2.21-2.03z" fill="#3C3E45"/><circle cx="123.286" cy="155.735" r="23.381" fill="#EED683"/><ellipse cx="103.02" cy="128.793" rx="17.356" ry="17.801" fill="#EED683"/><circle cx="99.46" cy="102.537" r="12.906" fill="#EED683"/><circle cx="119.041" cy="150.599" r="25.366" stroke="#3C3E45" stroke-width="3"/><path d="M94.565 143.479c-11.126-3.115-18.245-21.931-6.675-30.262 11.57-8.33 28.482-8.01 31.596 12.016" stroke="#3C3E45" stroke-width="3"/><path d="M88.78 112.328c-5.786-7.566-6.676-23.587 8.01-25.367 14.686-1.78 20.026 12.46 14.24 22.696" stroke="#3C3E45" stroke-width="3"/><path d="M169.181 146.113c8.686-21.95-11.863-32.815 7.215-60.218 15.647-22.475 47.373-23.775 62.702-1.151 18.754 27.678-31.558 102.203-50.145 97.098-7.753-2.129-13.989-4.879-17.995-8.954-5.598-5.696-6.84-13.98-1.777-26.775z" fill="#774232"/><ellipse cx="202.577" cy="102.373" rx="11.936" ry="10.757" transform="rotate(-63.907 202.577 102.373)" stroke="#fff" stroke-width="3"/><path d="M163.667 143.111c8.686-21.95-11.863-32.815 7.216-60.218 15.647-22.475 47.373-23.776 62.702-1.151 18.753 27.678-31.558 102.203-50.146 97.098-7.753-2.129-13.989-4.879-17.995-8.954-5.598-5.696-6.84-13.98-1.777-26.775z" stroke="#3C3E45" stroke-width="3"/></svg>