<svg width="310" height="286" fill="none" xmlns="http://www.w3.org/2000/svg"><circle cx="116.818" cy="127.374" r="103.839" fill="#F4FAF2"/><path fill-rule="evenodd" clip-rule="evenodd" d="M143.104 150.772c3.397 3.01 5.365 9.496 5.488 15.816-9.413-3.371-21.961-10.104-14.284-34.466 3.86 7.397 24.859 10.176 21.285 30.476 12.651-29.745 40.907-16.559 52.024-22.416-12.278 33.518-32.391 32.051-46.148 29.012 5.71-7.188 13.533-13.245 19.938-14.072-9.406-2.054-19.189 6.868-27.604 16.968-.655.662-.784 1.058-1.175 1.806l-.046-.307c-.222-8.251-1.869-20.182-9.478-22.817z" fill="#7FBE2B"/><rect x="145.904" y="21.102" width="119.655" height="237.192" rx="17" transform="rotate(18.113 145.904 21.102)" stroke="#3C3E45" stroke-width="3" stroke-linecap="round" stroke-linejoin="round"/><path d="M163.423 40.201l-.466 1.426.466-1.426zm6.711 2.196l1.425.466a1.503 1.503 0 0 0-.959-1.892l-.466 1.426zM97.582 241.486l.467-1.426-.467 1.426zm70.787 23.154l-.467 1.426.467-1.426zM227.5 61.161l.466-1.426a1.5 1.5 0 0 0-1.892.96l1.426.466zm-64.543-19.534l6.71 2.195.933-2.851-6.711-2.195-.932 2.851zm-13.244 6.715c1.802-5.511 7.732-8.518 13.244-6.715l.932-2.851c-7.086-2.318-14.71 1.547-17.028 8.634l2.852.932zm-58.38 178.474l58.38-178.474-2.852-.932-58.379 178.473 2.851.933zm6.716 13.244c-5.512-1.803-8.519-7.733-6.716-13.244l-2.851-.933c-2.318 7.087 1.548 14.71 8.634 17.028l.933-2.851zm70.786 23.154L98.049 240.06l-.933 2.851 70.786 23.155.933-2.852zm13.244-6.715c-1.803 5.512-7.732 8.518-13.244 6.715l-.933 2.852c7.087 2.318 14.711-1.548 17.029-8.634l-2.852-.933zm58.379-178.474L182.079 256.5l2.852.933L243.31 78.958l-2.852-.933zm-6.715-13.244c5.512 1.803 8.518 7.733 6.715 13.244l2.852.933c2.318-7.086-1.548-14.71-8.634-17.028l-.933 2.851zm-6.71-2.194l6.71 2.194.933-2.85-6.71-2.196-.933 2.852zm-.959-1.892l-1.427 4.361 2.852.933 1.426-4.362-2.851-.932zm-1.427 4.361a4.5 4.5 0 0 1-5.676 2.878l-.932 2.851a7.5 7.5 0 0 0 9.46-4.796l-2.852-.933zm-5.676 2.878L173.011 52.9l-.933 2.852 45.961 15.033.932-2.85zM173.011 52.9a4.5 4.5 0 0 1-2.878-5.676l-2.852-.932a7.5 7.5 0 0 0 4.797 9.46l.933-2.852zm-2.878-5.676l1.426-4.361-2.851-.933-1.427 4.361 2.852.933z" fill="#3C3E45"/><path d="M87.118 26.165c4.019-4.432 10.992-4.403 14.974.061 3.983 4.465 3.218 11.396-1.642 14.884L66.699 65.337a5.658 5.658 0 0 1-7.491-8.398l27.91-30.774z" fill="#F79A6E"/><path d="M85.927 21.771c4.019-4.431 10.992-4.402 14.974.062 3.982 4.464 3.217 11.395-1.643 14.884l-33.75 24.227a5.658 5.658 0 0 1-7.49-8.398L85.926 21.77zm15.693.103l5.697-5.082" stroke="#3C3E45" stroke-width="3" stroke-linecap="round" stroke-linejoin="round"/><path d="M107.075 16.519l-.868 1.223a1.5 1.5 0 0 0 1.684.036l-.816-1.26zm.275-13.061l.868-1.223a1.5 1.5 0 0 0-1.684-.036l.816 1.259zm.594 11.838a6.381 6.381 0 0 1-2.686-5.579l-2.995-.171a9.38 9.38 0 0 0 3.944 8.196l1.737-2.446zm-2.686-5.579a6.376 6.376 0 0 1 2.908-5l-1.632-2.518a9.376 9.376 0 0 0-4.271 7.347l2.995.171zm1.224-5.036a6.384 6.384 0 0 1 2.686 5.579l2.995.17a9.384 9.384 0 0 0-3.945-8.195l-1.736 2.446zm2.686 5.579a6.377 6.377 0 0 1-2.909 5l1.632 2.518a9.375 9.375 0 0 0 4.272-7.347l-2.995-.171z" fill="#3C3E45"/><path d="M107.35 17.17l-1.169-.94a1.5 1.5 0 0 0-.1 1.74l1.269-.8zm12.825.732l1.169.94c.401-.5.441-1.2.099-1.741l-1.268.8zm-11.656.208a6.376 6.376 0 0 1 5.346-2.38l.171-2.994a9.378 9.378 0 0 0-7.855 3.494l2.338 1.88zm5.346-2.38a6.379 6.379 0 0 1 5.042 2.973l2.536-1.602a9.378 9.378 0 0 0-7.407-4.365l-.171 2.995zm5.141 1.232a6.38 6.38 0 0 1-5.347 2.379l-.171 2.995a9.378 9.378 0 0 0 7.856-3.494l-2.338-1.88zm-5.347 2.379a6.379 6.379 0 0 1-5.041-2.972l-2.537 1.602a9.38 9.38 0 0 0 7.407 4.365l.171-2.995z" fill="#3C3E45"/><path stroke="#3C3E45" stroke-width="3" stroke-linecap="round" stroke-linejoin="round" d="M86.708 23.546L90.808 28.143"/><path stroke="#3C3E45" stroke-width="3" stroke-linecap="round" stroke-linejoin="round" d="M82.552 39.529L86.652 44.126"/><path stroke="#3C3E45" stroke-width="3" stroke-linecap="round" stroke-linejoin="round" d="M66.714 45.473L68.104 47.032"/><path d="M31.556 131.261c1.385-.88 2.183-2.035 3.777-2.659 5.845-2.412 8.102 1.52 12.06 5.484 9.495 9.51 11.433 26.26 5.319 38.031-1.166 2.244-7.96 4.417-10.25 7.863-.548.824-1.663 2.187-2.68 2.338-3.019.449-5.412-2.086-9.14-2.711-5.81-.974-8.502-5.802-11.331-10.256-7.237-11.393-3.054-28.111 8.427-35.404 1.354-.86 2.466-1.827 3.819-2.686z" fill="#F5CC43"/><path d="M26.142 126.507c1.385-.88 2.183-2.036 3.777-2.66 5.845-2.412 8.102 1.521 12.06 5.484 9.495 9.51 11.433 26.26 5.319 38.031-1.166 2.245-7.96 4.417-10.25 7.863-.548.825-1.663 2.187-2.68 2.338-3.019.45-5.412-2.085-9.14-2.71-5.81-.975-8.502-5.803-11.331-10.257-7.238-11.393-3.054-28.11 8.427-35.404 1.354-.86 2.466-1.827 3.818-2.685z" stroke="#3C3E45" stroke-width="3"/><path d="M247.791 179.693c13.791-6.49 8.924-20.687 30.016-25.148 17.298-3.66 32.803 9.753 30.016 27.176-3.411 21.315-60.031 34.145-66.522 23.526-2.707-4.429-4.426-8.48-4.51-12.169-.116-5.155 2.961-9.602 11-13.385z" fill="#F36A6A"/><ellipse cx="283.434" cy="175.437" rx="7.707" ry="5.273" transform="rotate(-20.697 283.434 175.437)" stroke="#fff" stroke-width="3"/><path d="M235.524 189.228c-.117-5.155 2.961-9.602 11-13.385 13.791-6.49 8.923-20.687 30.016-25.149 17.298-3.659 32.803 9.754 30.016 27.177-3.411 21.315-60.032 34.145-66.522 23.526-2.707-4.429-4.426-8.48-4.51-12.169zm0 0c-1.574 15.819 2.887 29.61 41.016 22.309 27.176-7.707 34.477-22.309 30.016-41.673" stroke="#3C3E45" stroke-width="3"/></svg>