<svg width="442" height="282" fill="none" xmlns="http://www.w3.org/2000/svg"><circle cx="321.897" cy="161.942" r="119.857" fill="#F4FAF2"/><path fill-rule="evenodd" clip-rule="evenodd" d="M172.497 30.47l39.968 27.252 35.952 133.138a2 2 0 0 1-1.409 2.453l-168.201 45.42a2 2 0 0 1-2.453-1.409l-13.54-50.143c14.379 12.785 31.475 10.58 44.657 7.411-7.492-10.983-18.412-20.133-27.84-21.519 16.39-4.123 33.015 14.98 42.903 29.248l.434.488a62.34 62.34 0 0 0-.095-.864c-.143-1.237-.241-2.089.078-3.669 3.145-27.466 10.045-54.434 28.919-61.648-10.29 8.828-17.049 28.499-18.798 47.724 27.645-10.49 64.638-31.066 47.605-104.2-3.925 7.101-12.76 12.9-22.769 19.47-22.56 14.809-51.079 33.529-42.741 79.886-11.647-27.143-33.947-26.847-51.816-26.61-3.476.046-6.784.09-9.814-.071l-13.135-48.642-37.135-25.32c-1.412-.963-1.045-3.138.605-3.583l166.977-45.09a2 2 0 0 1 1.648.278z" fill="#DB9C6F"/><rect x="44.899" y="95.02" width="178.226" height="139.907" rx="2" transform="rotate(-15.111 44.9 95.02)" stroke="#3C3E45" stroke-width="3" stroke-linecap="round" stroke-linejoin="round"/><path d="M253.179 183.949l25.599-6.913a2 2 0 0 0 1.409-2.452l-35.43-131.207a2 2 0 0 0-2.453-1.41l-25.599 6.913M44.526 94.913L7.55 70.02c-1.422-.958-1.06-3.143.595-3.59l166.951-45.083a2 2 0 0 1 1.638.272l39.855 26.83m27.96-7.55l9.609-30.327c.478-1.508-.901-2.947-2.428-2.535l-67.873 18.328" stroke="#3C3E45" stroke-width="3" stroke-linecap="round" stroke-linejoin="round"/><path d="M301.735 73.98c-3.446-5.596-1.283-12.944 4.645-15.78 5.928-2.836 13.006.09 15.201 6.285l15.238 43.018a6.215 6.215 0 0 1-11.151 5.335L301.735 73.98z" fill="#F79A6E"/><path d="M296.736 73.892c-3.446-5.595-1.283-12.943 4.645-15.78 5.928-2.835 13.006.092 15.201 6.286l15.238 43.018a6.215 6.215 0 1 1-11.151 5.335l-23.933-38.859zm4.908-16.525l-3.619-7.564" stroke="#3C3E45" stroke-width="3" stroke-linecap="round" stroke-linejoin="round"/><path d="M283.966 45.688l-.933-1.174a1.5 1.5 0 0 0-.504 1.608l1.437-.434zm13.695 4.286l.934 1.174a1.5 1.5 0 0 0 .503-1.608l-1.437.434zm-12.762-3.111a7.16 7.16 0 0 1 6.848-1.151l.998-2.83a10.159 10.159 0 0 0-9.712 1.632l1.866 2.349zm6.848-1.151a7.152 7.152 0 0 1 4.478 4.695l2.873-.866a10.155 10.155 0 0 0-6.353-6.658l-.998 2.829zm4.981 3.087a7.159 7.159 0 0 1-6.848 1.151l-.998 2.83a10.16 10.16 0 0 0 9.713-1.632l-1.867-2.349zm-6.848 1.151a7.152 7.152 0 0 1-4.478-4.695l-2.873.867a10.155 10.155 0 0 0 6.353 6.657l.998-2.829z" fill="#3C3E45"/><path d="M298.432 49.883l-1.228.861a1.5 1.5 0 0 0 1.644.58l-.416-1.44zm4.695-13.307l1.228-.861a1.5 1.5 0 0 0-1.644-.58l.416 1.44zm-3.466 12.446a7.153 7.153 0 0 1-.894-6.502l-2.829-.999a10.154 10.154 0 0 0 1.266 9.223l2.457-1.722zm-.894-6.502a7.154 7.154 0 0 1 4.776-4.503l-.832-2.882a10.154 10.154 0 0 0-6.773 6.386l2.829.998zm3.132-5.083a7.156 7.156 0 0 1 .893 6.502l2.829.999c1.136-3.22.552-6.63-1.266-9.223l-2.456 1.722zm.893 6.502a7.154 7.154 0 0 1-4.776 4.503l.832 2.882a10.154 10.154 0 0 0 6.773-6.386l-2.829-.999z" fill="#3C3E45"/><path stroke="#3C3E45" stroke-width="3" stroke-linecap="round" stroke-linejoin="round" d="M298.777 73.808L305.148 70.76"/><path stroke="#3C3E45" stroke-width="3" stroke-linecap="round" stroke-linejoin="round" d="M314.369 83.081L320.74 80.033"/><path stroke="#3C3E45" stroke-width="3" stroke-linecap="round" stroke-linejoin="round" d="M315.797 101.61L318.133 100.492"/><path d="M308.423 196.668c16.399 3.376 21.468-12.311 42.951-2.345 17.618 8.174 22.418 30.177 8.494 43.66-17.035 16.495-75.265-9.511-73.979-23.121.536-5.677 1.693-10.371 4.048-13.669 3.292-4.609 8.927-6.492 18.486-4.525z" fill="#F36A6A"/><ellipse cx="342.564" cy="216.397" rx="8.466" ry="5.792" transform="rotate(16.135 342.564 216.397)" stroke="#fff" stroke-width="3"/><path d="M291.358 196.973c3.292-4.609 8.927-6.493 18.486-4.525 16.399 3.375 21.468-12.312 42.951-2.345 17.618 8.174 22.418 30.177 8.494 43.66-17.035 16.494-75.265-9.511-73.979-23.121.536-5.677 1.693-10.371 4.048-13.669zm0 0c-11.801 12.872-16.96 27.935 21.371 46.624 28.969 11.12 45.004 3.089 53.832-16.874" stroke="#3C3E45" stroke-width="3"/><path d="M411.496 158.135c-4.616-1.91-15.947-18.16-20.732-29.63-1.629-3.906-8.231-8.648-12.304-9.799-.925-.261-1.555-.614-2.13-.936-1.543-.866-3.253.106-4.118 1.65-8.92 15.928-9.698 26.16-.799 37.601 9.353 12.025 34.071 9.131 40.083 6.236 6.013-2.895 11.357 4.676 10.912 2.895-.445-1.782-4.454-5.345-10.912-8.017z" fill="#F2EDE5"/><path d="M413.885 154.572c-4.616-1.91-15.947-18.16-20.732-29.63-1.629-3.906-8.231-8.648-12.304-9.799-.925-.261-1.556-.614-2.13-.936-1.544-.866-3.254.106-4.118 1.65-8.921 15.928-9.698 26.16-.799 37.601 9.352 12.026 34.071 9.131 40.083 6.236 6.013-2.895 11.357 4.676 10.912 2.895-.446-1.782-4.454-5.345-10.912-8.017z" stroke="#3C3E45" stroke-width="3" stroke-linecap="round" stroke-linejoin="round"/></svg>